<?xml version="1.0" encoding="UTF-8"?>
<svg width="2048" height="1024" version="1.1" viewBox="0 0 2048 1024" xmlns="http://www.w3.org/2000/svg">
 <path d="m1010 208c-4.1 0.1-8.2 0.3-12.2 0.7-23.9 2.3-46.4 11.4-64.8 26.1-8.7 7-16.5 15.1-23 24.2-3.2 4.5-6.1 9.3-8.6 14.2-2.5 4.9-4.7 10-6.5 15.2-1.8 5.2-3.2 10.5-4.2 15.9-1 5.4-1.6 10.9-1.8 16.4-0.2 5.5 0 11 0.6 16.5 0.6 5.5 1.6 10.9 3 16.2 1.4 5.3 3.2 10.5 5.4 15.6 2.2 5.1 4.7 10 7.6 14.8 2.9 4.8 6.1 9.4 9.7 13.8 3.6 4.4 7.5 8.6 11.7 12.5 4.2 3.9 8.7 7.5 13.4 10.8 4.7 3.3 9.7 6.3 14.8 9 5.1 2.7 10.4 5.1 15.8 7.2 5.4 2.1 11 3.9 16.6 5.4 5.6 1.5 11.3 2.7 17.1 3.6 5.8 0.9 11.6 1.5 17.4 1.8 5.8 0.3 11.7 0.3 17.5 0 5.8-0.3 11.6-0.9 17.4-1.8 5.8-0.9 11.5-2.1 17.1-3.6 5.6-1.5 11.2-3.3 16.6-5.4 5.4-2.1 10.7-4.5 15.8-7.2 5.1-2.7 10.1-5.7 14.8-9 4.7-3.3 9.2-6.9 13.4-10.8 4.2-3.9 8.1-8.1 11.7-12.5 3.6-4.4 6.8-9 9.7-13.8 2.9-4.8 5.4-9.7 7.6-14.8 2.2-5.1 4-10.3 5.4-15.6 1.4-5.3 2.4-10.7 3-16.2 0.6-5.5 0.8-11 0.6-16.5-0.2-5.5-0.8-11-1.8-16.4-1-5.4-2.4-10.7-4.2-15.9-1.8-5.2-4-10.3-6.5-15.2-2.5-4.9-5.4-9.7-8.6-14.2-6.5-9.1-14.3-17.2-23-24.2-18.4-14.7-40.9-23.8-64.8-26.1-4-0.4-8.1-0.6-12.2-0.7z" fill="#3b82f6" fill-opacity=".2"/>
 <path d="m512 416c-35.3 0-64 28.7-64 64s28.7 64 64 64 64-28.7 64-64-28.7-64-64-64zm960 0c-35.3 0-64 28.7-64 64s28.7 64 64 64 64-28.7 64-64-28.7-64-64-64z" fill="#3b82f6" fill-opacity=".2"/>
 <path d="m1536 608c-35.3 0-64 28.7-64 64s28.7 64 64 64 64-28.7 64-64-28.7-64-64-64zm-1024 0c-35.3 0-64 28.7-64 64s28.7 64 64 64 64-28.7 64-64-28.7-64-64-64z" fill="#3b82f6" fill-opacity=".2"/>
</svg> 